<svg width="481" height="814" viewBox="0 0 481 814" fill="none" xmlns="http://www.w3.org/2000/svg">
<path d="M159.273 648.424L139.831 624.398L195.699 592.259L216.559 636.402L159.273 648.424Z" fill="#3637B3"/>
<path d="M138.412 672.433C138.412 672.433 152.214 666.793 152.214 659.373C152.214 651.952 143.013 644.185 150.796 642.767C158.579 641.349 170.584 639.947 187.569 634.291C204.537 628.635 220.45 618.049 221.159 624.051C221.868 630.053 220.087 642.404 223.632 650.897C227.161 659.373 229.288 669.959 202.063 680.562C174.838 691.165 146.542 691.874 138.412 672.433Z" fill="#19137A"/>
<path d="M12.1812 753.679C12.1812 753.679 10.4168 775.215 23.4934 776.633C36.5864 778.051 72.65 774.869 114.023 769.576C155.397 764.282 234.944 755.444 245.91 750.859C256.859 746.259 256.513 736.018 249.439 723.667C242.365 711.284 199.227 713.411 177.658 722.942C156.089 732.49 155.034 740.256 110.132 746.605C65.2295 752.97 12.1812 753.679 12.1812 753.679Z" fill="#3637B3"/>
<path d="M174.838 678.798C191.114 674.956 199.936 675.978 206.647 663.611C213.375 651.243 219.031 644.532 224.687 644.532C230.343 644.532 233.889 655.135 233.889 655.135C233.889 655.135 238.836 655.481 244.129 673.505C249.439 691.512 259.696 729.307 249.093 733.545C238.473 737.783 220.796 740.965 205.955 737.783C191.097 734.6 178.367 731.071 162.817 738.129C147.251 745.203 115.079 754.734 83.962 758.972C52.8454 763.21 14.6547 764.628 12.8903 760.737C11.1258 756.861 6.52514 736.018 27.3849 723.667C48.2447 711.283 98.1104 687.62 114.023 677.033C129.936 666.43 141.594 655.844 144.431 663.248C147.251 670.668 155.38 683.382 174.838 678.798Z" fill="#FFB3FD"/>
<path d="M65.2298 715.884C61.1732 710.211 58.8646 703.516 63.4488 701.752C68.0495 699.988 72.6502 699.641 75.47 708.826C78.3063 717.995 79.7244 724.36 75.47 725.415C71.2321 726.487 68.7586 720.831 65.2298 715.884Z" fill="#19137A"/>
<path d="M89.6193 709.519C83.8148 699.081 77.9609 691.166 82.5451 689.038C87.1458 686.928 91.0374 681.618 96.6934 693.639C102.35 705.644 109.061 715.538 103.405 718.358C97.7488 721.177 94.929 719.067 89.6193 709.519Z" fill="#19137A"/>
<path d="M111.534 696.805C105.3 686.136 100.931 679.507 106.587 675.978C112.243 672.433 117.899 670.668 123.209 681.617C128.518 692.567 135.939 704.225 130.646 707.061C125.336 709.881 121.444 713.773 111.534 696.805Z" fill="#19137A"/>
<path d="M151.505 365.323C151.505 365.323 95.8014 416.706 76.1784 442.661C56.5553 468.633 16.7815 510.485 39.5871 538.567C62.3927 566.65 132.937 635.528 137.175 633.929C141.429 632.346 165.29 623.87 177.493 614.866C189.679 605.846 198.699 596.843 198.699 596.843L138.774 526.381C138.774 526.381 149.905 520.032 167.929 508.902C185.969 497.771 226.814 469.161 236.362 427.837C245.91 386.513 244.838 371.144 244.838 371.144L151.505 365.323Z" fill="#8FABFC"/>
<path d="M236.364 427.837C245.911 386.513 244.839 371.144 244.839 371.144L151.506 365.323C151.506 365.323 135.082 380.478 116.927 398.468C117.999 420.153 121.33 472.195 130.284 518.96C141.81 579.116 143.525 596.925 182.359 611.139C192.006 603.538 198.701 596.843 198.701 596.843L138.776 526.381C138.776 526.381 149.907 520.032 167.93 508.902C185.97 497.771 226.816 469.161 236.364 427.837Z" fill="#19137A"/>
<path d="M354.811 613.102L384.51 630.053L377.089 674.56L334.298 661.846L354.811 613.102Z" fill="#3637B3"/>
<path d="M388.4 687.983C388.4 687.983 381.326 681.98 374.251 680.925C367.177 679.853 361.884 677.38 366.485 670.668C371.069 663.957 375.323 657.608 377.797 644.894C380.27 632.181 378.143 624.051 383.453 624.397C388.746 624.76 399.003 630.762 399.003 630.762C399.003 630.762 406.786 652.315 402.894 666.084C399.003 679.853 388.4 687.983 388.4 687.983Z" fill="#19137A"/>
<path d="M466.892 670.322C466.892 670.322 481.387 673.505 480.331 685.51C479.276 697.514 475.731 705.644 442.487 745.912C409.26 786.181 406.077 788.291 394.765 798.185C383.453 808.079 382.744 810.553 358.701 812.317C334.659 814.082 293.632 815.137 287.992 811.955C282.32 808.789 278.428 796.421 281.973 789.001C285.502 781.58 332.878 794.294 360.466 781.943C388.037 769.575 456.635 693.276 461.945 684.091C467.255 674.906 466.892 670.322 466.892 670.322Z" fill="#3637B3"/>
<path d="M390.164 673.851C395.309 661.764 396.183 649.841 392.637 641.349C389.109 632.873 391.582 620.159 397.238 622.287C402.894 624.397 402.185 625.815 402.185 625.815C402.185 625.815 424.1 626.871 440.722 638.875C457.344 650.897 477.149 671.377 473.966 677.033C470.783 682.673 460.18 698.223 446.741 707.754C433.302 717.302 423.408 739.547 418.098 750.15C412.788 760.736 388.037 786.18 380.27 792.183C372.487 798.185 360.103 802.423 329.712 801.714C299.288 801.005 281.264 803.825 280.901 795.002C280.555 786.18 284.084 764.628 302.47 749.441C320.857 734.253 352.336 730.015 352.336 730.015C352.336 730.015 362.23 689.038 366.484 686.564C370.722 684.091 385.217 685.509 390.164 673.851Z" fill="#FFB3FD"/>
<path d="M338.551 732.835C338.551 732.835 334.297 732.143 334.297 740.602C334.297 749.094 336.424 757.917 328.987 758.279C321.567 758.626 321.567 756.498 322.622 748.385C323.694 740.256 324.04 730.362 329.713 728.96C335.369 727.542 338.551 732.835 338.551 732.835Z" fill="#19137A"/>
<path d="M363.995 725.778C370.36 731.78 375.67 740.602 372.141 744.148C368.596 747.676 363.286 753.679 357.993 747.314C352.683 740.965 347.027 735.672 344.916 732.489C342.789 729.307 343.135 725.415 345.262 723.304C347.39 721.177 350.572 719.413 354.81 721.54C359.048 723.667 363.995 725.778 363.995 725.778Z" fill="#19137A"/>
<path d="M372.488 701.752C382.036 704.935 390.875 709.519 389.819 714.466C388.747 719.413 386.637 726.487 379.216 723.668C371.779 720.831 361.523 717.302 357.631 715.175C353.739 713.064 352.338 709.519 354.448 705.281C356.576 701.043 359.049 698.223 363.65 699.279C368.25 700.351 372.488 701.752 372.488 701.752Z" fill="#19137A"/>
<path d="M140.357 358.431C140.357 358.431 131.057 437.022 143.54 525.853C156.27 616.449 179.736 625.832 217.267 636.056C269.771 650.369 340.842 669.431 342.953 666.793C346.367 662.522 355.156 641.349 357.811 631.818C360.466 622.287 365.231 612.211 363.12 609.045C360.993 605.846 324.93 582.546 298.941 568.76C272.953 554.991 253.858 548.626 253.858 548.626C253.858 548.626 266.061 497.771 268.188 460.685C270.298 423.599 267.116 399.227 267.116 399.227L140.357 358.431Z" fill="#8FABFC"/>
<path d="M72.6004 247.701C72.6004 247.701 65.7076 250.207 63.3165 248.888C60.942 247.552 56.2918 242.655 47.2718 241.072C42.6876 240.264 33.3048 238.747 30.4355 236.174C26.4615 232.596 20.2282 235.102 21.8113 240.264C23.4108 245.442 27.6487 246.365 32.2989 247.701C36.9326 249.02 40.2471 251.263 40.2471 251.263C40.2471 251.263 27.5168 254.049 18.3814 256.028C9.21295 258.023 2.18822 260.151 1.3967 262.921C0.605186 265.708 2.32014 267.818 4.71119 267.818C7.10224 267.818 13.0716 267.555 13.0716 267.555C13.0716 267.555 2.32014 269.814 0.737106 271.924C-0.86242 274.052 0.0775083 279.213 4.18351 279.609C8.28951 280.005 11.2082 279.213 11.2082 279.213C11.2082 279.213 6.70647 281.076 5.65112 283.187C4.57927 285.314 5.10695 289.157 10.2848 288.761C15.4462 288.348 21.8113 286.502 21.8113 286.502C21.8113 286.502 17.3095 289.288 17.5734 291.399C17.8372 293.526 22.2235 297.352 28.0445 294.45C33.8819 291.531 42.902 284.506 50.1905 283.847C57.4956 283.187 62.9208 283.055 65.9714 279.609C69.0221 276.162 74.5957 278.026 74.5957 278.026L72.6004 247.701Z" fill="#3637B3"/>
<path d="M37.8565 252.021C41.6657 253.175 43.2817 256.226 45.6068 259.145C47.5196 261.569 50.7022 263.35 53.8023 262.492C55.1215 262.129 54.5443 260.085 53.2251 260.447C49.3005 261.536 46.827 257.232 44.9142 254.659C43.2157 252.351 41.1545 250.801 38.4171 249.976C37.098 249.58 36.5373 251.625 37.8565 252.021Z" fill="#8FABFC"/>
<path d="M6.32775 269.517C14.111 268.445 21.7624 267.077 29.3972 265.263C30.7329 264.949 30.1558 262.905 28.8366 263.234C21.2017 265.048 13.5504 266.4 5.7506 267.472C4.41492 267.654 4.97557 269.682 6.32775 269.517Z" fill="#8FABFC"/>
<path d="M7.91018 281.423C15.3472 279.147 23.081 278.026 30.5839 275.998C31.9031 275.635 31.3424 273.59 30.0232 273.953C22.5203 275.998 14.7865 277.102 7.34952 279.395C6.04682 279.79 6.60747 281.835 7.91018 281.423Z" fill="#8FABFC"/>
<path d="M19.8336 288.612C24.5498 286.435 29.4473 284.704 33.8831 281.983C35.0539 281.274 33.9985 279.444 32.8277 280.153C28.3754 282.874 23.4779 284.605 18.7783 286.782C17.525 287.342 18.6134 289.173 19.8336 288.612Z" fill="#8FABFC"/>
<path d="M197.116 224.12C197.116 224.12 179.604 234.443 153.088 236.834C126.572 239.208 63.9926 246.101 63.4485 247.42C62.9208 248.756 67.9667 258.023 66.8949 266.763C65.8395 275.503 63.7123 285.578 63.7123 285.578C63.7123 285.578 85.7264 286.37 105.349 286.897C124.973 287.425 157.854 287.689 159.189 287.689C160.508 287.689 172.711 289.552 172.711 289.552L197.116 224.12Z" fill="#4353F0"/>
<path d="M144.118 287.557C152.495 287.656 158.629 287.689 159.19 287.689C160.509 287.689 172.712 289.552 172.712 289.552L197.117 224.12C197.117 224.12 185.59 230.914 167.072 234.756C161.07 245.046 149.923 265.906 144.118 287.557Z" fill="#19137A"/>
<path d="M253.595 345.717C253.595 345.717 263.143 345.981 268.452 347.036C273.746 348.091 279.583 349.411 279.583 349.411C279.583 349.411 276.664 335.378 265.006 327.429C253.331 319.481 249.885 318.954 249.885 318.954L253.595 345.717Z" fill="#4353F0"/>
<path d="M232.817 177.223C232.817 177.223 201.355 186.061 180.841 222.438C160.328 258.815 149.725 300.139 143.359 327.694C137.011 355.248 122.153 383.858 124.627 385.969C127.1 388.096 154.672 414.596 201.008 420.235C247.312 425.891 276.318 419.889 276.318 419.889C276.318 419.889 258.624 324.874 257.569 300.502C256.514 276.129 232.817 177.223 232.817 177.223Z" fill="#FFB3FD"/>
<path d="M157.096 277.498C180.05 285.825 219.016 298.407 257.801 303.849C257.685 302.628 257.619 301.507 257.57 300.501C257.537 299.561 257.454 298.522 257.355 297.385C219.494 291.926 181.518 279.608 159.141 271.462C158.432 273.491 157.773 275.502 157.096 277.498Z" fill="#4353F0"/>
<path d="M206.22 343.854C229.322 349.741 248.847 352.099 264.562 352.66C264.215 350.499 263.869 348.339 263.523 346.196C248.401 345.585 229.751 343.277 207.803 337.687C177.313 329.903 157.525 324.198 145.108 320.323C144.581 322.466 144.102 324.544 143.641 326.539C156.189 330.448 175.928 336.12 206.22 343.854Z" fill="#4353F0"/>
<path d="M155.133 283.616C151.835 294.137 149.114 304.179 146.822 313.347C156.139 317.305 176.784 324.824 214.794 332.987C234.73 337.291 250.428 338.775 262.384 338.923C260.619 327.595 259.152 317.157 258.294 309.291C247.114 308.12 233.394 306.075 216.904 302.612C184.617 295.852 165.588 288.629 155.133 283.616Z" fill="#3637B3"/>
<path d="M278.51 143.583C278.51 143.583 259.695 132.98 249.356 124.504C239 116.028 230.261 109.416 241.128 87.418C252.011 65.4204 268.979 34.4358 284.348 15.901C299.733 -2.65017 319.636 -4.51354 344.289 7.93639C368.958 20.4028 379.149 26.5865 391.5 38.6737C404.741 51.6513 413.233 61.7267 396.529 92.9752C379.825 124.24 367.622 142.775 358.075 155.241C348.527 167.691 332.35 171.665 311.672 161.326C290.993 151.003 278.51 143.583 278.51 143.583Z" fill="#FFB3FD"/>
<path d="M266.325 141.192L249.093 165.3L289.922 173.249C289.922 173.249 297.096 155.769 298.151 147.557C299.206 139.345 266.325 141.192 266.325 141.192Z" fill="#3637B3"/>
<path d="M266.325 141.192L256.811 154.483C259.531 155.785 267.364 158.77 281.166 158.143C287.614 157.847 292.33 157.566 295.727 157.319C296.865 153.691 297.805 150.162 298.151 147.557C299.206 139.345 266.325 141.192 266.325 141.192Z" fill="#19137A"/>
<path d="M271.536 78.3158C271.536 78.3158 262.516 96.1579 258.987 113.819C255.442 131.479 257.651 145.232 271.717 151.432C285.338 157.435 294.704 157.797 302.834 147.722C309.364 139.642 314.146 133.772 314.146 133.772C314.146 133.772 321.22 141.901 326.513 136.608C331.823 131.298 333.06 125.114 330.24 121.767C327.404 118.419 321.401 118.057 321.401 118.057L327.239 105.524L271.536 78.3158Z" fill="#3637B3"/>
<path d="M323.067 347.3C323.067 347.3 318.565 353.912 315.118 358.562C311.672 363.196 308.621 366.23 307.038 373.387C305.587 379.851 298.744 388.047 299.997 390.339C301.465 392.994 306.709 395.302 312.464 388.888C315.91 385.045 318.301 383.33 319.224 380.412C320.164 377.493 319.356 384.913 319.356 388.756C319.356 392.598 318.433 399.227 318.169 404.652C317.905 410.094 318.829 418.025 323.743 417.498C328.64 416.97 330.24 412.6 331.559 404.124C332.878 395.648 333.01 391.542 333.01 391.542C333.01 391.542 329.86 414.167 331.163 418.025C332.482 421.999 340.843 424.127 342.822 417.498C344.817 410.885 344.289 408.89 344.289 408.89C344.289 408.89 342.673 420.037 349.467 419.361C357.283 418.569 354.628 395.912 354.628 395.912C354.628 395.912 354.694 406.862 360.598 404.652C364.836 403.069 365.231 391.015 362.989 383.462C360.73 375.91 358.207 364.383 359.411 356.567C360.598 348.751 360.466 346.64 360.466 346.64L324.93 343.59L323.067 347.3Z" fill="#3637B3"/>
<path d="M333.291 376.438C333.456 386.777 331.378 397.067 330.108 407.307C329.927 408.659 332.054 408.643 332.219 407.307C333.505 397.067 335.566 386.777 335.401 376.438C335.385 375.069 333.258 375.069 333.291 376.438Z" fill="#8FABFC"/>
<path d="M344.684 376.833C345.641 388.558 344.354 400.661 343.101 412.336C342.953 413.688 345.064 413.672 345.212 412.336C346.482 400.661 347.768 388.558 346.811 376.833C346.696 375.481 344.569 375.481 344.684 376.833Z" fill="#8FABFC"/>
<path d="M353.078 377.51C355.618 384.534 354.315 392.087 353.969 399.359C353.903 400.711 356.03 400.711 356.079 399.359C356.442 391.889 357.745 384.172 355.123 376.949C354.661 375.679 352.616 376.223 353.078 377.51Z" fill="#8FABFC"/>
<path d="M318.961 373.519C318.829 375.86 318.697 378.202 318.565 380.544C318.483 381.912 320.61 381.896 320.693 380.544C320.824 378.202 320.94 375.86 321.088 373.519C321.171 372.15 319.044 372.167 318.961 373.519Z" fill="#8FABFC"/>
<path d="M273.136 161.326C290.104 165.218 308.837 169.093 308.837 169.093C308.837 169.093 289.049 195.938 286.213 215.726C283.376 235.498 278.429 260.233 286.922 290.607C295.414 320.982 300.361 349.246 300.361 349.246L276.319 351.719C276.319 351.719 273.136 336.169 260.752 324.511C248.385 312.852 203.829 265.526 201.009 248.921C198.173 232.332 191.94 227.797 204.884 200.539C214.795 179.696 231.45 177.635 239.546 171.566C243.784 168.384 243.075 156.742 249.094 157.797C255.096 158.852 273.136 161.326 273.136 161.326Z" fill="#4353F0"/>
<path d="M286.211 215.727C287.283 208.207 290.812 199.682 294.77 191.998L254.386 177.223C254.386 177.223 248.103 169.505 241.392 173.776C240.963 174.518 240.138 171.121 239.545 171.567C237.879 172.82 235.818 173.908 233.559 175.013C226.039 180.85 218.965 188.37 217.794 196.565C215.14 215.1 221.505 235.762 247.229 245.31C261.064 250.438 273.58 254.726 282.221 257.595C281.99 241.682 284.496 227.781 286.211 215.727Z" fill="#19137A"/>
<path d="M197.117 224.12C197.117 224.12 207.918 258.172 231.763 275.42C258.625 294.845 302.472 296.61 302.472 296.61C302.472 296.61 291.159 312.852 285.866 326.275C280.556 339.714 275.609 351.719 275.609 351.719C275.609 351.719 268.882 338.643 257.569 330.167C246.257 321.691 227.953 311.83 211.612 284.605C189.334 247.519 197.117 224.12 197.117 224.12Z" fill="#8FABFC"/>
<path d="M318.83 351.802L363.913 360.014C363.913 360.014 371.862 322.4 378.243 285.314C384.592 248.228 393.876 230.996 368.151 218.283C342.427 205.569 327.273 192.047 276.929 172.985C218.851 151.004 207.457 211.126 236.891 223.592C281.53 242.473 295.233 246.365 306.627 250.075C318.038 253.786 328.114 257.496 328.114 257.496C328.114 257.496 325.459 274.448 323.595 303.321C321.749 332.195 318.83 351.802 318.83 351.802Z" fill="#4353F0"/>
</svg>
