<svg width="687" height="846" viewBox="0 0 687 846" fill="none" xmlns="http://www.w3.org/2000/svg">
<g filter="url(#filter0_d_55_1060)">
<path d="M424.249 392.133C424.249 392.133 415.575 442.549 411.403 473.267C407.219 503.969 403.429 509.681 420.53 554.216C437.631 598.751 455.495 679.443 455.495 679.443C455.495 679.443 420.771 696.965 404.383 699.067C387.998 701.155 379.739 698.777 379.739 698.777C379.739 698.777 361.209 639.401 344.543 612.725C327.877 586.049 310.029 558.241 308.66 527.917C307.293 497.578 313.297 441.652 313.297 441.652L424.249 392.133Z" fill="#FFB3FD"/>
<path d="M381.019 483.588C393.072 479.39 403.14 475.657 411.297 472.531C415.495 441.845 424.049 392.097 424.049 392.097L313.325 441.502C313.325 441.502 310.367 468.994 309.083 495.836C317.761 495.803 348.779 494.826 381.019 483.588Z" fill="#19137A"/>
<path d="M471.227 705.582C471.227 705.582 484.305 719.423 482.423 731.502C480.541 743.582 473.358 749.57 452.674 755.878C431.988 762.2 390.508 760.259 381.743 764.762C372.995 769.253 349.112 783.177 315.407 778.693C281.717 774.197 248.265 758.247 268.139 734.52C287.997 710.806 302.843 716.475 302.843 716.475L471.227 705.582Z" fill="#4353F0"/>
<path d="M368.711 666.09C368.711 666.09 370.463 670.289 371.642 673.911C372.818 677.547 374.93 683.509 374.93 683.509C374.93 683.509 391.108 688.334 413.669 681.181C436.246 674.016 451.812 663.789 451.812 663.789L447.247 646.089C447.247 646.089 455.867 646.487 457.862 654.371C459.871 662.259 457.319 667.505 457.319 667.505C457.319 667.505 459.465 673.358 464.226 679.921C468.99 686.471 479.646 705.933 472.492 715.153C465.323 724.371 441.523 738.373 419.288 739.897C397.054 741.408 383.818 739.957 377.886 743.694C371.941 747.429 350.092 764.528 327.099 765.212C304.101 765.924 267.997 760.63 264.764 748.177C261.528 735.738 275.916 716.865 291.978 709C308.039 701.15 318.54 702.56 324.511 698.599C330.495 694.655 349.319 681.582 357.684 673.253C366.06 664.941 368.711 666.09 368.711 666.09Z" fill="#19137A"/>
<path d="M456.815 666.63C454.401 670.113 450.419 672.73 446.913 674.958C434.194 683.071 418.882 687.081 404.17 689.778C403.033 689.977 403.187 691.768 404.341 691.558C419.023 688.869 433.741 684.853 446.646 677.233C450.72 674.833 455.451 671.762 458.199 667.794C458.848 666.849 457.478 665.687 456.815 666.63Z" fill="#8FABFC"/>
<path d="M323.106 698.554C326.455 700.938 329.564 703.77 332.112 706.991C335.435 711.187 337.534 716.491 340.438 721.016C342.317 723.945 346.745 720.842 344.877 717.929C341.75 713.047 339.43 707.531 335.821 702.996C333.25 699.741 329.993 696.854 326.618 694.452C323.809 692.438 320.28 696.552 323.106 698.554Z" fill="#4353F0"/>
<path d="M336.438 689.311C344.742 695.245 353.765 703.62 356.476 713.76C357.375 717.11 362.404 715.232 361.53 711.901C358.596 700.931 348.922 691.635 339.931 685.22C337.14 683.214 333.619 687.3 336.438 689.311Z" fill="#4353F0"/>
<path d="M349.927 678.461C358.982 682.924 366.285 691.176 371.085 699.774C372.784 702.825 377.247 699.72 375.558 696.699C370.331 687.305 362.142 678.464 352.282 673.599C349.116 672.042 346.775 676.907 349.927 678.461Z" fill="#4353F0"/>
<path d="M194.822 431.803C194.822 431.803 187.91 439.66 185.435 448.321C182.96 456.982 181.05 477.574 181.05 477.574L249.67 509.824C249.67 509.824 263.855 486.868 242.227 462.543C220.601 438.204 194.822 431.803 194.822 431.803Z" fill="#8FABFC"/>
<path d="M414.975 336.562C414.975 336.562 443.909 371.774 434.201 405.119C424.504 438.481 386.419 469.043 344.049 480.183C301.695 491.312 270.835 497.215 270.835 497.215C270.835 497.215 267.646 519.876 251.941 558.536C236.236 597.196 219.873 634.373 218.916 639.664C217.958 644.956 216.968 652.988 216.968 652.988C216.968 652.988 189.158 657.148 167.035 652.748C144.909 648.361 134.19 639.149 134.19 639.149C134.19 639.149 150.052 617.379 153.982 600.772C157.902 584.149 170.044 544.869 173.39 516.298C176.719 487.739 180.761 467.96 180.761 467.96C180.761 467.96 185.112 469.181 202.007 477.207C218.888 485.231 246.169 499.189 246.169 499.189C246.169 499.189 240.555 479.516 220.263 459.96C199.958 440.388 187.879 438.696 187.764 436.85C187.633 435.016 200.308 418.14 244.624 393.69C288.942 369.227 341.861 350.406 341.861 350.406L414.975 336.562Z" fill="#FFB3FD"/>
<path d="M247.259 503.252C242.899 495.864 229.801 481.914 214.686 468.515C200.366 455.823 184.161 447.41 183.989 447.322L184.827 445.721C184.987 445.793 201.401 454.329 215.882 467.166C231.125 480.659 244.362 494.793 248.811 502.327L247.259 503.252Z" fill="#FFB3FD"/>
<path d="M228.684 693.776C228.684 693.776 233.379 708.322 231.244 720.124C229.108 731.925 229.91 734.201 224.163 735.614C218.416 737.027 212.268 742.333 190.213 739.312C168.171 736.295 160.75 733.459 149.375 733.869C138.014 734.282 109.718 740.515 84.2262 736.278C58.7347 732.04 30.9286 723.742 25.3271 710.851C19.7232 697.974 19.1435 682.647 29.205 675.919C39.2831 669.18 228.684 693.776 228.684 693.776Z" fill="#4353F0"/>
<path d="M224.549 624.954C224.549 624.954 237.913 625.502 234.945 633.5C231.959 641.51 227.511 644.065 229.153 651.975C230.777 659.896 234.509 666.346 234.02 680.903C233.534 695.446 230.365 706.15 225.057 706.734C219.748 707.318 190.638 709.13 178.626 707.914C166.602 706.681 143.441 711.097 126.206 715.039C108.957 718.978 75.1252 721.493 51.5292 711.49C27.9191 701.485 16.7059 692.49 24.4993 679.855C32.2926 667.219 49.5505 654.74 64.9905 655.673C80.4472 656.593 80.6919 660.287 85.4345 657.785C90.1772 655.282 112.906 644.687 122.993 634.595C133.093 624.506 136.748 617.842 140.702 617.94C144.669 618.041 146.939 618.791 146.939 618.791C146.939 618.791 145.212 622.091 143.652 624.944C142.095 627.783 140.348 630.068 140.348 630.068C140.348 630.068 151.042 645.376 172.892 646.527C194.711 647.687 219.051 640.119 219.051 640.119C219.051 640.119 220.791 635.553 221.725 632.069C222.676 628.574 224.549 624.954 224.549 624.954Z" fill="#19137A"/>
<path d="M228.86 645.613C220.411 651.178 208.657 652.482 198.905 653.14C187.449 653.916 175.558 654.208 164.104 653.126C162.951 653.007 162.613 654.791 163.781 654.912C175.434 656.015 187.398 655.562 199.072 654.941C209.045 654.424 221.27 652.768 229.885 647.088C230.856 646.448 229.835 644.959 228.86 645.613Z" fill="#8FABFC"/>
<path d="M92.7097 649.59C94.8347 652.33 96.9204 655.207 98.5017 658.297C100.318 661.86 101.686 665.646 103.608 669.185C105.281 672.248 109.732 669.138 108.081 666.108C106.136 662.536 104.87 658.668 102.934 655.126C101.269 652.094 99.2939 649.251 97.1664 646.524C95.0298 643.768 90.559 646.831 92.7097 649.59Z" fill="#4353F0"/>
<path d="M107.998 642.614C113.509 648.158 118.126 656.548 119.495 664.302C120.074 667.636 125.334 667.184 124.749 663.807C123.135 654.606 117.953 645.138 111.432 638.563C109.026 636.151 105.63 640.222 107.998 642.614Z" fill="#4353F0"/>
<path d="M120.562 634.083C127.057 640.557 133.264 647.753 136.867 656.354C138.216 659.574 143.298 657.69 141.938 654.453C137.962 644.967 131.251 637.053 124.085 629.905C121.606 627.434 118.109 631.631 120.562 634.083Z" fill="#4353F0"/>
<path d="M200.05 286.513L200.377 271.406C200.377 271.406 191.051 270.874 186.362 268.91C181.658 266.943 178.2 262.582 175.394 259.023C172.599 255.481 165.317 253.827 166.442 262.189C167 266.319 169.936 266.913 170.11 272.362C163.922 271.474 158.459 270.658 155.714 270.126C147.055 268.469 137.518 266.542 132.945 265.856C128.363 265.14 125.44 269.837 129.741 272.747C134.025 275.668 146.707 279.285 146.707 279.285C146.707 279.285 134.473 278.721 126.963 277.926C115.815 276.727 114.425 284.412 121.65 286.942C126.462 288.629 132.713 289.17 136.393 289.34C132.789 289.312 126.933 289.47 124.171 290.793C120.03 292.771 119.797 299.748 127.175 299.59C134.553 299.432 140.242 298.516 140.242 298.516C140.242 298.516 136.504 300.108 133.999 301.935C131.482 303.745 129.458 308.601 135.898 308.505C142.354 308.397 158.199 304.544 165.268 302.973C172.322 301.4 178.817 299.155 182.258 297.28C185.699 295.406 192.581 294.145 194.837 294.418C197.073 294.716 198.407 294.954 198.407 294.954L199.162 286.455C199.72 286.497 200.05 286.513 200.05 286.513Z" fill="#8FABFC"/>
<path d="M168.582 271.259C169.185 274.224 169.34 277.75 170.948 280.34C172.695 283.115 175.509 284.141 178.619 283.849C179.776 283.749 179.613 281.942 178.453 282.056C175.579 282.317 173.332 281.187 171.985 278.513C170.934 276.43 170.848 273.397 170.373 271.082C170.143 269.962 168.343 270.108 168.582 271.259Z" fill="#3637B3"/>
<path d="M143.894 279.405C145.78 279.741 147.652 280.074 149.524 280.408C150.644 280.607 150.883 279.285 149.763 279.085C147.891 278.752 146.019 278.419 144.133 278.083C143.013 277.883 142.773 279.205 143.894 279.405Z" fill="#3637B3"/>
<path d="M132.711 289.689C137.81 289.922 142.925 290.222 148.015 289.946C149.162 289.878 148.981 288.26 147.834 288.329C142.746 288.592 137.615 288.302 132.516 288.069C131.364 288.007 131.573 289.63 132.711 289.689Z" fill="#3637B3"/>
<path d="M138.371 300.2C141.523 299.631 144.659 298.9 147.83 298.478C149.028 298.31 148.884 296.342 147.67 296.508C144.514 296.933 141.364 297.661 138.229 298.217C137.02 298.447 137.164 300.415 138.371 300.2Z" fill="#3637B3"/>
<path d="M332.522 177.184C332.522 177.184 322.87 176.373 302.379 201.661C281.871 226.96 273.205 234.24 267.186 235.302C261.181 236.366 227.639 235.568 210.031 244.918C195.712 252.518 194.155 258.238 194.794 269.93C195.433 281.621 192.103 293.212 192.103 293.212C192.103 293.212 190.462 317.589 206.485 323.803C222.497 330 259.664 337.845 286.477 306.374C313.307 274.891 326.934 263.909 326.934 263.909L332.522 177.184Z" fill="#3637B3"/>
<path d="M197.899 278.068C197.956 287.654 195.131 295.902 195.131 295.902C195.131 295.902 189.404 298.178 188.764 296.558C188.108 294.95 190.697 287.597 190.817 279.975C190.955 272.342 189.135 267.67 191.1 268.02C193.079 268.373 197.744 269.346 197.744 269.346C197.744 269.346 197.846 272.22 197.899 278.068Z" fill="#3637B3"/>
<path d="M332.448 177.172C332.448 177.172 329.306 176.295 316.896 188.064C311.747 199.084 301.969 218.339 299.457 243.606C296.925 268.898 295.034 286.941 293.941 297.259C315.843 272.584 326.973 263.694 326.973 263.694L332.448 177.172Z" fill="#19137A"/>
<path d="M423.373 193.133C425.26 197.738 431.072 213.108 427.575 230.757C424.062 248.418 419.52 266.803 422.114 294.681C424.707 322.572 430.192 356.458 424.28 358.751C418.366 361.058 411.782 356.828 411.782 356.828C411.782 356.828 397.283 372.834 373.6 371.962C349.928 371.105 329.531 360.464 329.531 360.464C329.531 360.464 321.624 363.627 313.66 357.031C305.684 350.419 307.222 279.393 304.733 247.569C302.245 215.745 311.424 183.562 329.098 175.432C346.758 167.301 371.929 171.784 390.61 176.64C409.29 181.496 421.899 189.525 423.373 193.133Z" fill="#3637B3"/>
<path d="M427.37 231.004C427.832 228.686 428.115 226.409 428.29 224.184L394.398 203.903C394.398 203.903 383.039 225.48 396.475 240.02C405.396 249.678 415.589 256.02 422.179 260.722C423.416 249.779 425.534 240.28 427.37 231.004Z" fill="#19137A"/>
<path d="M581.426 291.521C581.426 291.521 588.284 302.349 591.882 308.986C596.262 317.057 606.205 319.059 604.545 311.141C602.901 303.212 600.06 300.535 600.06 300.535C600.06 300.535 603.288 300.434 606.054 301.602C608.806 302.768 614.201 305.225 622.392 311.243C630.585 317.246 632.303 317.897 633.884 314.195C635.464 310.494 633.249 308.834 633.249 308.834C633.249 308.834 636.124 306.843 635.497 303.999C634.87 301.155 633.701 300.027 633.701 300.027C633.701 300.027 635.326 297.354 633.671 293.881C632.004 290.391 627.206 284.633 627.206 284.633C627.206 284.633 628.744 279.888 622.077 276.313C615.396 272.736 606.715 271.981 602.191 270.384C597.669 268.773 594.987 266.584 594.987 266.584L581.426 291.521Z" fill="#8FABFC"/>
<path d="M594.89 299.281C596.704 299.965 598.507 300.635 600.31 301.304C601.361 301.705 602.11 300.205 601.059 299.804C599.256 299.134 597.442 298.45 595.639 297.78C594.588 297.379 593.836 298.892 594.89 299.281Z" fill="#3637B3"/>
<path d="M454.132 188.216C486.776 195.425 541.392 214.083 563.102 224.031C584.825 233.983 600.521 246.8 594.206 258.127C587.875 269.466 581.064 280.1 579.711 292.613C578.358 305.126 575.403 319.783 564.09 319.896C552.764 320.006 507.709 298.926 485.363 280.668C463.003 262.407 433.188 251.633 418.716 247.229C404.245 242.825 388.371 233.47 390.524 210.618C392.681 187.752 397.157 175.638 454.132 188.216Z" fill="#3637B3"/>
<path d="M588.76 258.998C588.76 258.998 593.903 263.917 596.895 265.673C599.897 267.445 598.723 267.235 595.979 270.735C593.232 274.249 586.333 284.082 585.307 289.751C584.284 295.405 580.498 294.731 576.366 290.924C572.234 287.117 588.76 258.998 588.76 258.998Z" fill="#3637B3"/>
<path d="M330.839 113.411L346.907 181.35C346.907 181.35 338.141 213.365 338.438 231.906C338.732 250.461 338.65 262.321 346.614 246.144C354.561 229.979 369.884 211.021 377.405 202.316C384.928 193.598 392.112 188.033 392.112 188.033C392.112 188.033 382.754 162.618 381.688 157.183C380.611 151.731 330.839 113.411 330.839 113.411Z" fill="#8FABFC"/>
<path d="M382.172 157.274C381.078 151.818 330.839 113.411 330.839 113.411L342.258 161.074C347.524 168.253 356.665 179.033 366.162 182.05C377.034 185.514 385.22 187.491 391.378 184.509C388.727 177.278 383.007 161.429 382.172 157.274Z" fill="#19137A"/>
<path d="M403.577 77.9088C403.577 77.9088 402.264 116.671 400.701 134.163C399.136 151.67 392.843 176.32 377.906 172.969C362.966 169.632 348.204 164.038 336.054 131.325C323.92 98.6005 321.351 93.8118 321.351 93.8118L403.577 77.9088Z" fill="#8FABFC"/>
<path d="M329.51 48.722C329.51 48.722 339.434 32.1947 365.849 31.6663C388.488 31.2007 419.135 52.8065 419.196 81.5935C419.269 110.397 399.665 132.495 399.665 132.495C399.665 132.495 403.833 120.897 396.672 112.312C389.51 103.727 384.885 100.164 384.885 100.164L329.51 48.722Z" fill="#4353F0"/>
<path d="M385.268 100.158C385.268 100.158 377.494 99.4509 374.573 107.373C365.038 133.248 387.182 145.231 383.25 147.959C379.319 150.688 349.343 163.385 323.66 147.17C297.993 130.944 282.53 91.1364 303.258 62.5585C319.94 39.584 348.016 35.3073 360.798 49.4548C373.565 63.5997 385.268 100.158 385.268 100.158Z" fill="#4353F0"/>
<path d="M336.616 42.133C340.742 41.4779 345.271 42.719 349.045 44.2455C361.567 49.2558 369.815 61.4536 375.476 73.1906C375.979 74.2213 377.669 73.6102 377.155 72.563C371.402 60.6214 363.443 49.1266 351.239 43.2318C346.92 41.145 341.333 39.5563 336.45 40.3515C335.313 40.5254 335.474 42.3349 336.616 42.133Z" fill="#8FABFC"/>
</g>
<defs>
<filter id="filter0_d_55_1060" x="17.3257" y="31.6589" width="622.261" height="755.912" filterUnits="userSpaceOnUse" color-interpolation-filters="sRGB">
<feFlood flood-opacity="0" result="BackgroundImageFix"/>
<feColorMatrix in="SourceAlpha" type="matrix" values="0 0 0 0 0 0 0 0 0 0 0 0 0 0 0 0 0 0 127 0" result="hardAlpha"/>
<feOffset dy="4"/>
<feGaussianBlur stdDeviation="2"/>
<feComposite in2="hardAlpha" operator="out"/>
<feColorMatrix type="matrix" values="0 0 0 0 0 0 0 0 0 0 0 0 0 0 0 0 0 0 0.25 0"/>
<feBlend mode="normal" in2="BackgroundImageFix" result="effect1_dropShadow_55_1060"/>
<feBlend mode="normal" in="SourceGraphic" in2="effect1_dropShadow_55_1060" result="shape"/>
</filter>
</defs>
</svg>
